<?xml version="1.0" encoding="UTF-8" standalone="no"?>
<!-- Created with Inkscape (http://www.inkscape.org/) -->
<svg
   xmlns:svg="http://www.w3.org/2000/svg"
   xmlns="http://www.w3.org/2000/svg"
   version="1.0"
   width="256"
   height="256"
   viewBox="0 0 128 128"
   id="svg"
   style="fill-rule:evenodd;stroke-miterlimit:10">
  <defs
     id="defs2447" />
  <path
     d="M 63.810195,79.103034 C 62.906327,85.140655 61.134817,89.659812 58.495661,92.660518 C 55.892596,95.661252 52.403807,97.161612 48.029284,97.161602 C 43.4378,97.161612 39.659785,95.534715 36.695228,92.280908 C 33.766805,88.990976 32.302598,84.724893 32.302603,79.482644 C 32.302598,75.071974 33.351042,71.673568 35.44794,69.287416 C 37.54482,66.865186 40.111701,65.654052 43.14859,65.654011 C 45.570842,65.654052 47.703884,66.485576 49.547722,68.148588 C 51.391516,69.811676 52.313424,71.836258 52.313449,74.22234 C 52.313424,76.319261 51.554205,78.036541 50.035792,79.374184 C 48.553485,80.711881 46.745823,81.398793 44.612798,81.434921 L 44.612798,80.567242 C 46.311984,80.422655 47.595424,79.934587 48.463124,79.103034 C 49.33078,78.235384 49.764619,77.006173 49.764642,75.415399 C 49.764619,73.64392 49.041554,72.14356 47.595445,70.914314 C 46.149294,69.685139 44.432014,69.070534 42.443601,69.070497 C 39.442865,69.070534 37.201364,69.920135 35.719089,71.619303 C 34.236797,73.282388 33.495655,75.126204 33.495662,77.150757 C 33.495655,80.621498 34.797172,83.441452 37.400217,85.610626 C 40.003241,87.779842 43.27511,88.86444 47.215835,88.864422 C 51.662665,88.86444 55.27799,87.689459 58.061822,85.339477 C 60.881745,82.953383 62.870173,79.374211 64.027115,74.60195 C 65.364748,79.374211 67.208564,82.953383 69.558568,85.339477 C 71.908487,87.689459 74.873053,88.86444 78.452277,88.864422 C 87.418232,88.86444 91.901236,82.519544 91.901301,69.829716 C 91.901236,60.46606 88.719749,52.476191 82.356832,45.860085 C 75.885345,39.171794 67.985859,35.827618 58.658351,35.827547 C 57.537569,35.827618 56.760274,35.863771 56.326464,35.936007 C 57.555645,36.948369 58.694473,38.412575 59.74295,40.328632 C 60.791361,42.24482 61.315584,43.817487 61.315618,45.046636 C 61.315584,47.035126 60.592519,48.643946 59.146421,49.8731 C 57.700258,51.066214 55.964902,51.662743 53.940347,51.662688 C 51.228826,51.662743 48.680022,50.325072 46.293926,47.649673 C 43.907792,44.974391 42.714735,42.226744 42.714751,39.406723 C 42.714735,33.694576 46.980819,30.838469 55.513015,30.838393 C 69.287376,30.838469 80.639497,38.502959 89.569413,53.831885 C 93.654668,60.917975 95.697327,68.275162 95.697396,75.903468 C 95.697327,90.075574 90.563565,97.161612 80.296095,97.161602 C 75.596119,97.161612 71.854257,95.661252 69.070499,92.660518 C 66.322809,89.659812 64.569376,85.140655 63.810195,79.103034 M 58.495661,42.335139 C 58.49563,40.599847 57.917178,39.117564 56.760304,37.888285 C 55.49491,36.586836 53.922243,35.936078 52.042299,35.936007 C 50.089999,35.936078 48.408872,36.478376 46.998915,37.562905 C 45.480459,38.719878 44.72124,40.147932 44.721258,41.84707 C 44.72124,43.293265 45.335846,44.703241 46.565076,46.077005 C 47.902727,47.559348 49.475393,48.30049 51.28308,48.300432 C 53.054565,48.30049 54.699538,47.703961 56.218004,46.510844 C 57.736412,45.317847 58.49563,43.925946 58.495661,42.335139"
     id="text2505"
     style="font-size:111.06290436px;font-style:normal;font-variant:normal;font-weight:normal;font-stretch:normal;text-align:start;line-height:125%;writing-mode:lr-tb;text-anchor:start;fill:#000000;fill-opacity:1;stroke:none;stroke-width:1px;stroke-linecap:butt;stroke-linejoin:miter;stroke-opacity:1;font-family:Times;-inkscape-font-specification:Times" />
</svg>
